<svg width="36" height="33" viewBox="0 0 36 33" fill="none" xmlns="http://www.w3.org/2000/svg">
<g clip-path="url(#clip0_14_269)">
<path d="M27 17.875H19.5V24.75C19.5 25.5063 18.825 26.125 18 26.125C17.175 26.125 16.5 25.5063 16.5 24.75V17.875H9C8.175 17.875 7.5 17.2563 7.5 16.5C7.5 15.7437 8.175 15.125 9 15.125H16.5V8.25C16.5 7.49375 17.175 6.875 18 6.875C18.825 6.875 19.5 7.49375 19.5 8.25V15.125H27C27.825 15.125 28.5 15.7437 28.5 16.5C28.5 17.2563 27.825 17.875 27 17.875Z" fill="black"/>
</g>
<defs>
<clipPath id="clip0_14_269">
<rect width="36" height="33" fill="white"/>
</clipPath>
</defs>
</svg>
